<svg width="1278" height="676" viewBox="0 0 1278 676" fill="none" xmlns="http://www.w3.org/2000/svg">
<g opacity="0.5">
<ellipse rx="24.9646" ry="10.7364" transform="matrix(-0.987316 -0.158767 -0.152407 0.988318 1213.14 659.012)" fill="#F7F0D4"/>
<rect width="15.4543" height="42.0799" transform="matrix(-0.987316 -0.158767 -0.152407 0.988318 1210.16 615.914)" fill="#8A5C38"/>
<rect width="15.4543" height="8.83157" transform="matrix(-0.987316 -0.158767 -0.152407 0.988318 1207.47 633.371)" fill="#333D42" fill-opacity="0.6"/>
<path fill-rule="evenodd" clip-rule="evenodd" d="M1222 487.855L1182.73 537.489L1198.28 539.989L1169.96 575.774L1180.21 577.422L1144.09 623.179L1255.59 641.109L1234.99 586.232L1245.24 587.88L1229.05 544.938L1244.44 547.411L1222 487.855Z" fill="#2F88A4"/>
</g>
<g opacity="0.5">
<ellipse rx="24.3158" ry="10.5507" transform="matrix(-1 0 0 1 1003.79 598.224)" fill="#F7F0D4"/>
<rect width="15.0526" height="41.3518" transform="matrix(-1 0 0 1 994.526 556.872)" fill="#8A5C38"/>
<rect width="15.0526" height="8.67879" transform="matrix(-1 0 0 1 994.526 574.23)" fill="#333D42" fill-opacity="0.6"/>
<path fill-rule="evenodd" clip-rule="evenodd" d="M986.917 430.775L956.481 485.06H971.821L949.865 524.199H959.976L932 574.23H1042L1014.02 524.199H1024.14L1002.18 485.06H1017.35L986.917 430.775Z" fill="#2F88A4"/>
</g>
<g opacity="0.5">
<ellipse rx="24.9646" ry="10.7364" transform="matrix(0.987316 -0.158767 0.152407 0.988318 159.702 612.82)" fill="#F7F0D4"/>
<rect width="15.4543" height="42.0799" transform="matrix(0.987316 -0.158767 0.152407 0.988318 162.679 569.722)" fill="#8A5C38"/>
<rect width="15.4543" height="8.83157" transform="matrix(0.987316 -0.158767 0.152407 0.988318 165.371 587.179)" fill="#333D42" fill-opacity="0.6"/>
<path fill-rule="evenodd" clip-rule="evenodd" d="M150.835 441.663L190.106 491.298L174.557 493.798L202.883 529.582L192.634 531.231L228.751 576.987L117.249 594.917L137.847 540.041L127.598 541.689L143.784 498.746L128.402 501.22L150.835 441.663Z" fill="#2F88A4"/>
</g>
<g opacity="0.5">
<ellipse cx="324.281" cy="582.05" rx="24.3158" ry="10.6099" fill="#F7F0D4"/>
<rect x="333.544" y="540.466" width="15.0526" height="41.5841" fill="#8A5C38"/>
<rect x="333.544" y="557.921" width="15.0526" height="8.72754" fill="#333D42" fill-opacity="0.6"/>
<path fill-rule="evenodd" clip-rule="evenodd" d="M341.153 413.66L371.589 468.25H356.249L378.206 507.609H368.095L396.07 557.921H286.07L314.046 507.609H303.935L325.892 468.25H310.717L341.153 413.66Z" fill="#2F88A4"/>
</g>
<ellipse rx="33.1336" ry="14.2704" transform="matrix(-0.997628 -0.0688353 -0.0660238 0.997818 1107.29 637.725)" fill="#F7F0D4"/>
<rect width="20.5113" height="55.9308" transform="matrix(-0.997628 -0.0688353 -0.0660238 0.997818 1098.39 581.047)" fill="#8A5C38"/>
<rect width="20.5113" height="11.7386" transform="matrix(-0.997628 -0.0688353 -0.0660238 0.997818 1096.84 604.473)" fill="#333D42" fill-opacity="0.6"/>
<path fill-rule="evenodd" clip-rule="evenodd" d="M1099.31 410.151L1053.09 480.56L1073.94 481.998L1040.6 532.762L1054.34 533.71L1011.84 598.608L1161.38 608.926L1127.82 538.78L1141.56 539.728L1115.21 484.846L1135.84 486.269L1099.31 410.151Z" fill="#2F88A4"/>
<path fill-rule="evenodd" clip-rule="evenodd" d="M114.908 111.871C116.902 107.147 111.633 103.086 106.734 104.6C101.236 106.3 95.4028 107.214 89.3609 107.214C56.286 107.214 29.4735 79.8335 29.4735 46.0585V46.0585C29.4735 41.4297 24.4813 38.1337 20.9943 41.1776C8.14498 52.3942 0 69.067 0 87.6823C0 121.457 26.8125 148.837 59.8874 148.837C84.5486 148.837 105.728 133.616 114.908 111.871Z" fill="#F7F0D4"/>
<circle cx="396" cy="52.6223" r="11" fill="white"/>
<ellipse cx="754" cy="51.6223" rx="11" ry="12" fill="white"/>
<circle cx="943.5" cy="76.1223" r="11.5" fill="white"/>
<circle cx="888.5" cy="191.5" r="11.5" fill="white"/>
<ellipse cx="1253" cy="247.122" rx="11" ry="11.5" fill="white"/>
<ellipse cx="1165.5" cy="10.7755" rx="11.5" ry="10.5" fill="white"/>
<circle cx="333.5" cy="319.122" r="11.5" fill="white"/>
<ellipse cx="33.5" cy="328.122" rx="11.5" ry="10.5" fill="white"/>
<ellipse cx="68.5" cy="547.622" rx="10.5" ry="11" fill="white"/>
<circle cx="506.5" cy="88.1223" r="11.5" fill="white"/>
<path d="M1006.61 268.29C1007.24 270.067 1009.76 270.067 1010.39 268.29L1014 258.066C1014.2 257.516 1014.62 257.078 1015.16 256.867L1025.18 252.987C1026.89 252.328 1026.89 249.917 1025.18 249.257L1015.16 245.377C1014.62 245.166 1014.2 244.729 1014 244.179L1010.39 233.955C1009.76 232.177 1007.24 232.177 1006.61 233.955L1003 244.179C1002.8 244.729 1002.38 245.166 1001.84 245.377L991.816 249.257C990.112 249.917 990.112 252.328 991.816 252.987L1001.84 256.867C1002.38 257.078 1002.8 257.516 1003 258.066L1006.61 268.29Z" fill="#F7F0D4"/>
<path d="M1153.11 152.296C1153.74 154.072 1156.26 154.072 1156.89 152.296L1160.64 141.701C1160.83 141.151 1161.26 140.713 1161.8 140.503L1172.18 136.488C1173.88 135.828 1173.88 133.416 1172.18 132.757L1161.8 128.742C1161.26 128.531 1160.83 128.094 1160.64 127.544L1156.89 116.949C1156.26 115.172 1153.74 115.172 1153.11 116.949L1149.36 127.544C1149.17 128.094 1148.74 128.531 1148.2 128.742L1137.82 132.757C1136.12 133.416 1136.12 135.828 1137.82 136.488L1148.2 140.503C1148.74 140.713 1149.17 141.151 1149.36 141.701L1153.11 152.296Z" fill="#F7F0D4"/>
<path d="M191.629 317.68C192.281 319.402 194.719 319.402 195.371 317.68L199.252 307.424C199.458 306.878 199.893 306.45 200.442 306.251L210.802 302.503C212.561 301.866 212.561 299.378 210.802 298.742L200.442 294.993C199.893 294.795 199.458 294.366 199.252 293.82L195.371 283.565C194.719 281.842 192.281 281.842 191.629 283.565L187.748 293.82C187.542 294.366 187.107 294.795 186.558 294.993L176.198 298.742C174.439 299.378 174.439 301.866 176.198 302.503L186.558 306.251C187.107 306.45 187.542 306.878 187.748 307.424L191.629 317.68Z" fill="#F7F0D4"/>
<ellipse rx="33.1336" ry="14.2704" transform="matrix(0.997628 -0.0688353 0.0660238 0.997818 226.488 609.725)" fill="#F7F0D4"/>
<rect width="20.5113" height="55.9308" transform="matrix(0.997628 -0.0688353 0.0660238 0.997818 235.387 553.047)" fill="#8A5C38"/>
<rect width="20.5113" height="11.7386" transform="matrix(0.997628 -0.0688353 0.0660238 0.997818 236.938 576.473)" fill="#333D42" fill-opacity="0.6"/>
<path fill-rule="evenodd" clip-rule="evenodd" d="M234.47 382.151L280.693 452.56L259.84 453.998L293.183 504.762L279.438 505.71L321.936 570.608L172.402 580.926L205.964 510.78L192.219 511.728L218.572 456.846L197.943 458.269L234.47 382.151Z" fill="#2F88A4"/>
</svg>
